<svg width="22" height="23" viewBox="0 0 22 23" fill="none" xmlns="http://www.w3.org/2000/svg">
<path fill-rule="evenodd" clip-rule="evenodd" d="M10.99 6.41074C11.6512 6.41074 12.1871 5.87479 12.1871 5.21367C12.1871 4.55255 11.6512 4.0166 10.99 4.0166C10.3289 4.0166 9.79297 4.55255 9.79297 5.21367C9.79297 5.87479 10.3289 6.41074 10.99 6.41074ZM11.6083 7.83954C12.7999 7.56006 13.6871 6.49048 13.6871 5.21367C13.6871 3.72412 12.4796 2.5166 10.99 2.5166C9.50049 2.5166 8.29297 3.72412 8.29297 5.21367C8.29297 6.45014 9.12502 7.49228 10.2598 7.8107V9.90244C8.58026 10.2054 7.30615 11.6745 7.30615 13.4413C7.30615 13.8763 7.38337 14.2932 7.52485 14.6791L5.58971 15.7963C5.11265 15.3697 4.48288 15.1104 3.79253 15.1104C2.30298 15.1104 1.09546 16.3179 1.09546 17.8074C1.09546 19.297 2.30298 20.5045 3.79253 20.5045C5.28208 20.5045 6.48959 19.297 6.48959 17.8074C6.48959 17.4966 6.43701 17.198 6.34025 16.9202L8.21896 15.8355C8.87752 16.5731 9.83566 17.0374 10.9022 17.0374C12.0073 17.0374 12.9959 16.539 13.6555 15.7547L15.6454 16.9036C15.5449 17.1861 15.4902 17.4904 15.4902 17.8074C15.4902 19.297 16.6978 20.5045 18.1873 20.5045C19.6769 20.5045 20.8844 19.297 20.8844 17.8074C20.8844 16.3179 19.6769 15.1104 18.1873 15.1104C17.5035 15.1104 16.8791 15.3648 16.4037 15.7842L14.3149 14.5783C14.4339 14.2209 14.4983 13.8386 14.4983 13.4413C14.4983 11.6969 13.2563 10.2426 11.6083 9.9145V7.83954ZM3.79253 19.0045C4.45365 19.0045 4.98959 18.4685 4.98959 17.8074C4.98959 17.1463 4.45365 16.6104 3.79253 16.6104C3.1314 16.6104 2.59546 17.1463 2.59546 17.8074C2.59546 18.4685 3.1314 19.0045 3.79253 19.0045ZM19.3844 17.8074C19.3844 18.4685 18.8484 19.0045 18.1873 19.0045C17.5262 19.0045 16.9902 18.4685 16.9902 17.8074C16.9902 17.1463 17.5262 16.6104 18.1873 16.6104C18.8484 16.6104 19.3844 17.1463 19.3844 17.8074Z" fill="#3081E8"/>
</svg>
