<svg width="22" height="23" viewBox="0 0 22 23" fill="none" xmlns="http://www.w3.org/2000/svg">
<path fill-rule="evenodd" clip-rule="evenodd" d="M10.99 6.41064C11.6511 6.41064 12.187 5.875 12.187 5.21387C12.187 4.55273 11.6511 4.0166 10.99 4.0166C10.3289 4.0166 9.79297 4.55273 9.79297 5.21387C9.79297 5.875 10.3289 6.41064 10.99 6.41064ZM11.6084 7.83936C12.7998 7.56006 13.687 6.49023 13.687 5.21387C13.687 3.72412 12.4795 2.5166 10.99 2.5166C9.50049 2.5166 8.29297 3.72412 8.29297 5.21387C8.29297 6.4502 9.125 7.49219 10.2598 7.81055V9.90234C8.58032 10.2051 7.30615 11.6743 7.30615 13.4414C7.30615 13.8765 7.3833 14.2935 7.5249 14.6792L5.58984 15.7964C5.11279 15.3696 4.48291 15.1104 3.79248 15.1104C2.30298 15.1104 1.09546 16.3179 1.09546 17.8076C1.09546 19.2969 2.30298 20.5044 3.79248 20.5044C5.28198 20.5044 6.4895 19.2969 6.4895 17.8076C6.4895 17.4966 6.43677 17.1982 6.34009 16.9204L8.21899 15.8354C8.87769 16.5732 9.83569 17.0376 10.9023 17.0376C12.0073 17.0376 12.9958 16.5391 13.6555 15.7549L15.6455 16.9038C15.5449 17.1865 15.4902 17.4907 15.4902 17.8076C15.4902 19.2969 16.6978 20.5044 18.1873 20.5044C19.6768 20.5044 20.8843 19.2969 20.8843 17.8076C20.8843 16.3179 19.6768 15.1104 18.1873 15.1104C17.5034 15.1104 16.8789 15.3647 16.4036 15.7842L14.3149 14.5781C14.4338 14.2207 14.4983 13.8389 14.4983 13.4414C14.4983 11.6968 13.2563 10.2427 11.6084 9.91455V7.83936ZM10.9023 15.5376C12.0598 15.5376 12.9983 14.5991 12.9983 13.4414C12.9983 12.2837 12.0598 11.3452 10.9023 11.3452C9.74463 11.3452 8.80615 12.2837 8.80615 13.4414C8.80615 14.5991 9.74463 15.5376 10.9023 15.5376ZM3.79248 19.0044C4.45361 19.0044 4.9895 18.4688 4.9895 17.8076C4.9895 17.1465 4.45361 16.6104 3.79248 16.6104C3.55322 16.6104 3.33032 16.6807 3.14331 16.8018C2.96582 16.9165 2.82056 17.0767 2.72437 17.2661C2.64185 17.4287 2.59546 17.6128 2.59546 17.8076C2.59546 18.4688 3.13135 19.0044 3.79248 19.0044ZM19.3843 17.8076C19.3843 18.4688 18.8484 19.0044 18.1873 19.0044C17.8081 19.0044 17.4702 18.8281 17.2507 18.5537C17.1445 18.4204 17.0662 18.2642 17.0244 18.0933L17.0122 18.0381C17.0068 18.0107 17.0024 17.9834 16.999 17.9556C16.9932 17.9072 16.9902 17.8579 16.9902 17.8076C16.9902 17.1465 17.5261 16.6104 18.1873 16.6104C18.8484 16.6104 19.3843 17.1465 19.3843 17.8076Z" fill="white"/>
</svg>
